HIERARCHY
ROOT Hips
{
	OFFSET 0.000000 0.000000 0.000000 
	CHANNELS 6 Xposition Yposition Zposition Zrotation Yrotation Xrotation
	JOINT LeftUpLeg
	{
		OFFSET 1.363060 -1.794630 0.839290 
		CHANNELS 3 Zrotation Yrotation Xrotation
		JOINT LeftLeg
		{
			OFFSET 2.448110 -6.726130 0.000000 
			CHANNELS 3 Zrotation Yrotation Xrotation
			JOINT LeftFoot
			{
				OFFSET 2.562200 -7.039590 0.000000 
				CHANNELS 3 Zrotation Yrotation Xrotation
				JOINT LeftToeBase
				{
					OFFSET 0.157640 -0.433110 2.322550 
					CHANNELS 3 Zrotation Yrotation Xrotation
					End Site
					{
						OFFSET 0.000000 0.000000 0.000000 
					}
				}
			}
		}
	}
	JOINT RightUpLeg
	{
		OFFSET -1.305520 -1.794630 0.839290 
		CHANNELS 3 Zrotation Yrotation Xrotation
		JOINT RightLeg
		{
			OFFSET -2.542530 -6.985550 0.000000 
			CHANNELS 3 Zrotation Yrotation Xrotation
			JOINT RightFoot
			{
				OFFSET -2.568260 -7.056230 0.000000 
				CHANNELS 3 Zrotation Yrotation Xrotation
				JOINT RightToeBase
				{
					OFFSET -0.164730 -0.452590 2.363150 
					CHANNELS 3 Zrotation Yrotation Xrotation
					End Site
					{
						OFFSET 0.000000 0.000000 0.000000 
					}
				}
			}
		}
	}
	JOINT Spine
	{
		OFFSET 0.028270 2.035590 -0.193380 
		CHANNELS 3 Zrotation Yrotation Xrotation
		JOINT Spine1
		{
			OFFSET 0.056720 2.048850 -0.042750 
			CHANNELS 3 Zrotation Yrotation Xrotation
			JOINT Neck1
			{
				OFFSET -0.054170 1.746240 0.172020 
				CHANNELS 3 Zrotation Yrotation Xrotation
				JOINT Head
				{
					OFFSET 0.104070 1.761360 -0.123970 
					CHANNELS 3 Zrotation Yrotation Xrotation
					End Site
					{
						OFFSET 0.000000 0.000000 0.000000 
					}
				}
			}
			JOINT LeftArm
			{
				OFFSET 3.362410 1.200890 -0.311210 
				CHANNELS 3 Zrotation Yrotation Xrotation
				JOINT LeftForeArm
				{
					OFFSET 4.983000 -0.000000 -0.000000 
					CHANNELS 3 Zrotation Yrotation Xrotation
					JOINT LeftHand
					{
						OFFSET 3.483560 -0.000000 -0.000000 
						CHANNELS 3 Zrotation Yrotation Xrotation
						JOINT LeftHandIndex1
						{
							OFFSET 0.715260 -0.000000 -0.000000 
							CHANNELS 3 Zrotation Yrotation Xrotation
							End Site
							{
								OFFSET 0.000000 0.000000 0.000000 
							}
						}
					}
				}
			}
			JOINT RightArm
			{
				OFFSET -3.136600 1.374050 -0.404650 
				CHANNELS 3 Zrotation Yrotation Xrotation
				JOINT RightForeArm
				{
					OFFSET -5.241900 -0.000000 -0.000000 
					CHANNELS 3 Zrotation Yrotation Xrotation
					JOINT RightHand
					{
						OFFSET -3.444170 -0.000000 -0.000000 
						CHANNELS 3 Zrotation Yrotation Xrotation
						JOINT RightHandIndex1
						{
							OFFSET -0.622530 -0.000000 -0.000000 
							CHANNELS 3 Zrotation Yrotation Xrotation
							End Site
							{
								OFFSET 0.000000 0.000000 0.000000 
							}
						}
					}
				}
			}
		}
	}
}
MOTION
Frames: 7
Frame Time: 0.041667
-8.640979 17.668259 5.222652 -37.730164 84.160934 -20.913431 -9.061606 -3.280004 -35.732961 1.609498 10.280703 29.595717 0.952426 -8.430149 -0.589775 0.017100 -0.843700 -2.319000 12.241827 8.177320 -38.713421 -3.756253 -10.390238 32.864480 -0.076298 0.689961 -2.360253 -0.063900 -1.631400 4.488100 5.138035 1.303709 17.135684 4.860976 1.057520 0.940851 -3.291298 2.949409 35.032129 -2.870600 2.185000 17.381200 -93.541096 -16.946326 84.199884 49.037864 -54.895550 -25.157316 -1.079010 1.339165 -65.283080 -7.125000 0.000000 0.000000 82.888469 17.575608 73.137405 -45.758925 53.695475 -22.658610 -0.175010 -0.911920 -58.342889 7.125000 0.000000 0.000000 
-8.640781 17.670939 5.219971 -37.534388 84.158043 -20.797293 -9.144389 -3.216059 -35.659992 1.605943 10.274653 29.585759 0.949518 -8.313812 -0.737134 0.043200 -1.341800 -3.689800 12.237972 8.112789 -38.614965 -3.744104 -10.379497 32.811457 -0.081637 0.745040 -2.335128 -0.063000 -1.619000 4.453800 5.156460 1.261167 17.175201 4.913250 1.036409 0.938512 -3.247251 2.987230 35.040552 -2.838000 2.197600 17.392900 -93.545785 -16.940478 84.144631 49.127658 -54.932379 -25.227234 -1.080439 1.338196 -65.273293 -7.125000 0.000000 0.000000 82.832612 17.588896 73.170109 -45.853642 53.739853 -22.729906 -0.174911 -0.912444 -58.325983 7.125000 0.000000 0.000000 
-8.640880 17.673521 5.217886 -37.429243 84.142191 -20.731723 -9.072631 -3.337080 -35.560018 1.602904 10.267034 29.568019 0.942529 -8.300975 -0.590806 0.010600 -0.665900 -1.830000 12.203296 8.174890 -38.505174 -3.729189 -10.361553 32.740494 -0.076975 0.699818 -2.324606 -0.076000 -1.778300 4.893400 5.124877 1.250878 17.189324 4.898127 1.028934 0.926183 -3.180286 2.980168 35.049655 -2.804800 2.199800 17.392900 -93.582791 -16.953807 84.161070 49.119500 -54.929594 -25.220976 -1.078558 1.337952 -65.192238 -7.125000 0.000000 0.000000 82.803478 17.588105 73.144003 -45.930009 53.776068 -22.789360 -0.173150 -0.911981 -58.320940 7.125000 0.000000 0.000000 
-8.641575 17.676102 5.215305 -37.451797 84.063783 -20.733673 -9.009381 -3.356604 -35.541521 1.596367 10.256073 29.531365 0.940673 -8.251215 -0.604800 0.008000 -0.576500 -1.584200 12.244874 8.227641 -38.476098 -3.714173 -10.337587 32.660326 -0.073523 0.673051 -2.293556 -0.065500 -1.651000 4.542000 5.138923 1.257168 17.178801 4.891083 1.033202 0.933931 -3.191592 3.013676 35.047352 -2.802800 2.209500 17.392000 -93.650807 -16.964620 84.186494 49.088511 -54.915677 -25.195917 -1.078225 1.339838 -65.109272 -7.125000 0.000000 0.000000 82.744042 17.584874 73.076895 -45.962579 53.790966 -22.814414 -0.172062 -0.911812 -58.369396 7.125000 0.000000 0.000000 
-8.641873 17.678088 5.213518 -37.571209 83.930190 -20.845387 -8.996621 -3.177414 -35.559631 1.586630 10.237008 29.474087 0.944859 -8.199467 -0.722028 0.026800 -1.057400 -2.906900 12.372649 8.210810 -38.475552 -3.702840 -10.316441 32.593285 -0.081997 0.780719 -2.194530 -0.063200 -1.622500 4.463400 5.191829 1.286732 17.200389 4.893159 1.052099 0.972857 -3.235081 3.044063 35.054373 -2.811600 2.208400 17.415500 -93.752524 -17.054784 84.279350 49.043731 -54.896336 -25.160246 -1.080612 1.341290 -65.141689 -7.125000 0.000000 0.000000 82.625116 17.631186 73.010098 -45.953205 53.785931 -22.806153 -0.172752 -0.913407 -58.436335 7.125000 0.000000 0.000000 
-8.641575 17.679180 5.211929 -37.524598 83.862733 -20.828338 -8.919855 -3.200772 -35.473165 1.576818 10.216285 29.417869 0.940441 -8.189861 -0.582033 0.008200 -0.584500 -1.606200 12.406450 8.233470 -38.415768 -3.694791 -10.304895 32.550790 -0.083479 0.807607 -2.138526 -0.078100 -1.802300 4.959700 5.193839 1.275207 17.234922 4.884428 1.046458 1.001296 -3.248030 3.071866 35.053569 -2.805500 2.208000 17.430100 -93.801537 -17.145126 84.338052 49.010388 -54.882787 -25.132575 -1.083992 1.340327 -65.197513 -7.125000 0.000000 0.000000 82.587265 17.680713 73.019302 -45.842033 53.735203 -22.722255 -0.174071 -0.912648 -58.364338 7.125000 0.000000 0.000000 
-8.641773 17.679577 5.208554 -36.501966 83.881037 -19.820932 -8.993114 -3.320810 -35.392755 1.566625 10.203509 29.382085 0.931608 -8.146849 -0.497298 0.001100 -0.210000 -0.576900 12.248307 8.230204 -38.386130 -3.686467 -10.297236 32.516578 -0.081294 0.788747 -2.123344 -0.091400 -1.949500 5.366200 5.144607 1.193579 17.212115 4.954028 1.000528 0.976951 -3.298143 3.197576 35.038767 -2.807400 2.249000 17.412900 -93.743769 -17.075012 84.213942 49.107098 -54.921699 -25.208635 -1.084909 1.338025 -65.217476 -7.125000 0.000000 0.000000 82.596567 17.665276 73.166311 -45.751857 53.694823 -22.656965 -0.173822 -0.908321 -58.289249 7.125000 0.000000 0.000000 
